<svg width="24" height="24" viewBox="0 0 24 24" fill="none" xmlns="http://www.w3.org/2000/svg">
<path d="M19.5 2.75C21.0188 2.75 22.25 3.98122 22.25 5.5V16.5C22.25 18.0188 21.0188 19.25 19.5 19.25H12.2578L7.96094 22.5918C7.73494 22.7676 7.42814 22.7995 7.1709 22.6738C6.91358 22.548 6.75 22.2864 6.75 22V19.25H4.5C2.98122 19.25 1.75 18.0188 1.75 16.5V5.5C1.75 3.98122 2.98122 2.75 4.5 2.75H19.5ZM4.5 4.25C3.80964 4.25 3.25 4.80964 3.25 5.5V16.5C3.25 17.1904 3.80964 17.75 4.5 17.75H7.5C7.91421 17.75 8.25 18.0858 8.25 18.5V20.4658L11.5391 17.9082L11.6436 17.8398C11.7525 17.781 11.8749 17.75 12 17.75H19.5C20.1904 17.75 20.75 17.1904 20.75 16.5V5.5C20.75 4.80964 20.1904 4.25 19.5 4.25H4.5ZM14.8291 12.165C15.0143 11.7947 15.4646 11.6442 15.835 11.8291C16.2053 12.0143 16.3558 12.4646 16.1709 12.835L15.5 12.5C16.1561 12.828 16.1707 12.8354 16.1709 12.8359L16.167 12.8418C16.1656 12.8445 16.164 12.8479 16.1621 12.8516C16.1583 12.859 16.1535 12.8688 16.1475 12.8799C16.1355 12.902 16.1195 12.9315 16.0986 12.9668C16.0569 13.0377 15.9967 13.1336 15.917 13.2461C15.7582 13.4703 15.5176 13.7654 15.1855 14.0605C14.5152 14.6564 13.4695 15.25 12 15.25C10.5305 15.25 9.4848 14.6564 8.81445 14.0605C8.48244 13.7654 8.24182 13.4703 8.08301 13.2461C8.00334 13.1336 7.94313 13.0377 7.90137 12.9668C7.88055 12.9315 7.86454 12.902 7.85254 12.8799C7.84653 12.8688 7.84175 12.859 7.83789 12.8516C7.83598 12.8479 7.8344 12.8445 7.83301 12.8418C7.83244 12.8407 7.83154 12.8398 7.83105 12.8389L7.83008 12.8369C7.82991 12.8366 7.82918 12.8354 8.5 12.5L7.8291 12.835C7.64416 12.4646 7.79469 12.0143 8.16504 11.8291C8.53545 11.6442 8.98475 11.7947 9.16992 12.165H9.1709C9.17475 12.1721 9.18302 12.1859 9.19434 12.2051C9.21702 12.2436 9.25454 12.304 9.30762 12.3789C9.41441 12.5297 9.58017 12.7347 9.81055 12.9395C10.2652 13.3436 10.9696 13.75 12 13.75C13.0304 13.75 13.7348 13.3436 14.1895 12.9395C14.4198 12.7347 14.5856 12.5297 14.6924 12.3789C14.7455 12.304 14.783 12.2436 14.8057 12.2051C14.817 12.1859 14.8253 12.1721 14.8291 12.165ZM8.5 7.25C8.91421 7.25 9.25 7.58579 9.25 8V8.5C9.25 8.91421 8.91421 9.25 8.5 9.25C8.08579 9.25 7.75 8.91421 7.75 8.5V8C7.75 7.58579 8.08579 7.25 8.5 7.25ZM15.5 7.25C15.9142 7.25 16.25 7.58579 16.25 8V8.5C16.25 8.91421 15.9142 9.25 15.5 9.25C15.0858 9.25 14.75 8.91421 14.75 8.5V8C14.75 7.58579 15.0858 7.25 15.5 7.25Z" fill="#333333"/>
</svg>
