<svg width="24" height="24" viewBox="0 0 24 24" fill="none" xmlns="http://www.w3.org/2000/svg">
<path d="M9.55566 3C12.6778 3.00004 15.4094 4.68289 16.9033 7.19629C13.0743 7.44233 10.0439 10.6457 10.0439 14.5605C10.044 16.6066 10.8721 18.4583 12.209 19.7949C11.3743 20.0689 10.4822 20.2178 9.55566 20.2178H2.60254C2.07182 20.2178 1.71701 19.6677 1.93262 19.1797L2.8916 17.0059L2.80078 16.8926C1.70824 15.4809 1.07304 13.7568 1.00586 11.9316L1 11.6084C1.00018 6.85406 4.83067 3 9.55566 3ZM17.5 9C20.5375 9 23 11.4625 23 14.5L22.9932 14.7744C22.9391 15.8692 22.5629 16.9052 21.9238 17.7686L21.8857 17.8174L22.4072 18.9912C22.618 19.4656 22.27 20 21.751 20H17.5C14.4624 20 12 17.5376 12 14.5C12 11.4625 14.4624 9 17.5 9Z" fill="#333333"/>
</svg>
